<svg width="427" height="420" viewBox="0 0 427 420" fill="none" xmlns="http://www.w3.org/2000/svg">
<path d="M177 419.5C142 419.5 111.167 412.5 84.5 398.5C57.8333 384.833 37 365.167 22 339.5C7.33334 314.167 2.5034e-06 284.167 2.5034e-06 249.5C2.5034e-06 214.167 5.83334 181.5 17.5 151.5C29.5 121.167 46.3333 94.6667 68 72C89.6667 49.3333 115.5 31.6667 145.5 19C175.5 6.33331 208.667 -2.26498e-05 245 -2.26498e-05C281.667 -2.26498e-05 313.5 7.16665 340.5 21.5C367.833 35.5 389 55.1667 404 80.5C419 105.833 426.5 135.167 426.5 168.5C426.5 187.833 424.167 206.667 419.5 225C415.167 243.333 408.5 259.833 399.5 274.5C390.5 289.167 379.5 301 366.5 310C353.5 318.667 338.5 323 321.5 323C301.5 323 287 316.833 278 304.5C269.333 292.167 266.167 276.333 268.5 257L270 240L278.5 255C270.167 276 257 292.667 239 305C221 317 201.333 323 180 323C155 323 135.5 315.333 121.5 300C107.5 284.667 100.5 263.833 100.5 237.5C100.5 219.167 103.333 201.667 109 185C114.667 168.333 122.667 153.5 133 140.5C143.667 127.167 156.167 116.667 170.5 109C185.167 101.333 201.5 97.5 219.5 97.5C239.833 97.5 256 103 268 114C280 124.667 287 140.5 289 161.5L279 168L290.5 103H326L301 246.5C298.667 260.5 299.333 272 303 281C307 289.667 315.167 294 327.5 294C338.167 294 347.5 290.167 355.5 282.5C363.833 274.833 370.667 264.833 376 252.5C381.667 240.167 385.833 226.833 388.5 212.5C391.167 198.167 392.5 184.167 392.5 170.5C392.5 140.833 386.333 115.667 374 95C361.667 74 344 57.8333 321 46.5C298.333 35.1666 271.333 29.5 240 29.5C209.667 29.5 181.833 35 156.5 46C131.5 57 109.833 72.5 91.5 92.5C73.1667 112.167 59 135.167 49 161.5C39 187.5 34 215.667 34 246C34 276.667 40 302.667 52 324C64.3333 345.333 81.8333 361.5 104.5 372.5C127.167 383.833 154 389.5 185 389.5C199.333 389.5 213.5 388 227.5 385C241.833 382.333 255.167 378.167 267.5 372.5L274.5 401C259.5 407.333 243.833 412 227.5 415C211.167 418 194.333 419.5 177 419.5ZM192 291C206.333 291 219.333 287.167 231 279.5C242.667 271.833 252.333 261.333 260 248C267.667 234.333 272.333 218.5 274 200.5C275.667 187.5 274.667 175.667 271 165C267.333 154.333 261.333 145.833 253 139.5C244.667 132.833 233.833 129.5 220.5 129.5C207.5 129.5 196 132.5 186 138.5C176 144.167 167.5 151.833 160.5 161.5C153.5 171.167 148.167 182 144.5 194C140.833 206 139 218.333 139 231C139 249 143.5 263.5 152.5 274.5C161.5 285.5 174.667 291 192 291Z" fill="white"/>
</svg>
