<svg width="500" height="500" viewBox="0 0 500 500" fill="none" xmlns="http://www.w3.org/2000/svg">
<path d="M249.933 121.726C178.949 121.726 121.661 179.015 121.661 250C121.661 320.985 178.949 378.274 249.933 378.274C320.917 378.274 378.205 320.985 378.205 250C378.205 179.015 320.917 121.726 249.933 121.726ZM249.933 333.369C204.028 333.369 166.566 295.906 166.566 250C166.566 204.094 204.028 166.631 249.933 166.631C295.838 166.631 333.3 204.094 333.3 250C333.3 295.906 295.838 333.369 249.933 333.369ZM383.458 86.5771C366.885 86.5771 353.501 99.9611 353.501 116.535C353.501 133.109 366.885 146.493 383.458 146.493C400.031 146.493 413.415 133.171 413.415 116.535C413.42 112.599 412.649 108.702 411.145 105.065C409.641 101.428 407.435 98.1233 404.652 95.3405C401.869 92.5577 398.565 90.3512 394.928 88.8474C391.291 87.3437 387.393 86.5721 383.458 86.5771V86.5771ZM499.972 250C499.972 215.477 500.285 181.266 498.346 146.805C496.407 106.778 487.276 71.2542 458.007 41.9845C428.675 12.6521 393.214 3.58351 353.188 1.6447C318.665 -0.294109 284.455 0.0186028 249.995 0.0186028C215.473 0.0186028 181.263 -0.294109 146.803 1.6447C106.776 3.58351 71.2529 12.7147 41.9837 41.9845C12.6519 71.3168 3.58344 106.778 1.64467 146.805C-0.294104 181.329 0.0186025 215.539 0.0186025 250C0.0186025 284.461 -0.294104 318.734 1.64467 353.195C3.58344 393.222 12.7144 428.746 41.9837 458.016C71.3154 487.348 106.776 496.416 146.803 498.355C181.325 500.294 215.535 499.981 249.995 499.981C284.518 499.981 318.728 500.294 353.188 498.355C393.214 496.416 428.738 487.285 458.007 458.016C487.339 428.683 496.407 393.222 498.346 353.195C500.347 318.734 499.972 284.523 499.972 250V250ZM444.936 397.475C440.37 408.857 434.867 417.363 426.048 426.119C417.23 434.937 408.787 440.441 397.405 445.007C364.508 458.078 286.394 455.139 249.933 455.139C213.471 455.139 135.295 458.078 102.398 445.069C91.0159 440.504 82.5103 435 73.7545 426.182C64.9363 417.363 59.4326 408.92 54.8671 397.537C41.8586 364.577 44.798 286.462 44.798 250C44.798 213.538 41.8586 135.36 54.8671 102.463C59.4326 91.0801 64.9363 82.5744 73.7545 73.8185C82.5728 65.0626 91.0159 59.4963 102.398 54.9307C135.295 41.9219 213.471 44.8614 249.933 44.8614C286.394 44.8614 364.571 41.9219 397.467 54.9307C408.85 59.4963 417.355 65 426.111 73.8185C434.929 82.6369 440.433 91.0801 444.998 102.463C458.007 135.36 455.068 213.538 455.068 250C455.068 286.462 458.007 364.577 444.936 397.475Z" fill="#F5F5F5"/>
</svg>
